{"accessors":[{"name":"chr_rain_1_positions","componentType":5126,"count":1776,"min":[-7,0,-4.5],"max":[7,16,3.5],"type":"VEC3","bufferView":0,"byteOffset":0},{"name":"chr_rain_1_normals","componentType":5126,"count":1776,"min":[-1,-1,-1],"max":[1,1,1],"type":"VEC3","bufferView":0,"byteOffset":21312},{"name":"chr_rain_1_texcoords","componentType":5126,"count":1776,"min":[0.02539060078561306,0.5],"max":[0.9941409826278687,0.5],"type":"VEC2","bufferView":1,"byteOffset":0},{"name":"chr_rain_1_0_indices","componentType":5123,"count":3054,"min":[0],"max":[1775],"type":"SCALAR","bufferView":2,"byteOffset":0}],"asset":{"generator":"obj2gltf","version":"2.0"},"buffers":[{"name":"chr_rain","byteLength":62940,"uri":"data:application/octet-stream;base64,"}],"bufferViews":[{"name":"bufferView_0","buffer":0,"byteLength":42624,"byteOffset":0,"byteStride":12,"target":34962},{"name":"bufferView_1","buffer":0,"byteLength":14208,"byteOffset":42624,"byteStride":8,"target":34962},{"name":"bufferView_2","buffer":0,"byteLength":6108,"byteOffset":56832,"target":34963}],"materials":[{"name":"palette","pbrMetallicRoughness":{"baseColorFactor":[0.5,0.5,0.5,1],"metallicFactor":0,"roughnessFactor":1},"emissiveFactor":[0,0,0],"alphaMode":"OPAQUE","doubleSided":false}],"meshes":[{"name":"chr_rain_1","primitives":[{"attributes":{"POSITION":0,"NORMAL":1,"TEXCOORD_0":2},"indices":3,"material":0,"mode":4}]}],"nodes":[{"name":"chr_rain","mesh":0}],"scene":0,"scenes":[{"nodes":[0]}]}
