{"accessors":[{"bufferView":1,"componentType":5126,"count":1722,"max":[5.469963073730469,0.5414999723434448,5.130464553833008],"min":[0.5766608715057373,0.22848844528198242,0.5890531539916992],"type":"VEC3","byteOffset":0},{"bufferView":1,"byteOffset":20664,"componentType":5126,"count":1722,"max":[1,1,1],"min":[-1,-1,-1],"type":"VEC3"},{"bufferView":0,"componentType":5125,"count":7080,"max":[1721],"min":[0],"type":"SCALAR","byteOffset":0},{"bufferView":1,"byteOffset":41328,"componentType":5126,"count":1284,"max":[4.862370491027832,0.5422999858856201,4.807700157165527],"min":[1.0620999336242676,0.22848844528198242,1.8360271453857422],"type":"VEC3"},{"bufferView":1,"byteOffset":56736,"componentType":5126,"count":1284,"max":[1,1,1],"min":[-1,-1,-1],"type":"VEC3"},{"bufferView":0,"byteOffset":28320,"componentType":5125,"count":7680,"max":[1283],"min":[0],"type":"SCALAR"},{"bufferView":1,"byteOffset":72144,"componentType":5126,"count":1284,"max":[5.087100028991699,0.5425866842269897,2.062700033187866],"min":[2.7176613807678223,0.2393999993801117,0.5372076034545898],"type":"VEC3"},{"bufferView":1,"byteOffset":87552,"componentType":5126,"count":1284,"max":[1,1,1],"min":[-1,-1,-1],"type":"VEC3"},{"bufferView":0,"byteOffset":59040,"componentType":5125,"count":7680,"max":[1283],"min":[0],"type":"SCALAR"},{"bufferView":1,"byteOffset":102960,"componentType":5126,"count":1284,"max":[2.8580000400543213,0.5426000356674194,1.1509580612182617],"min":[2.3736162185668945,0.23958666622638702,0.6856000423431396],"type":"VEC3"},{"bufferView":1,"byteOffset":118368,"componentType":5126,"count":1284,"max":[1,1,1],"min":[-1,-1,-1],"type":"VEC3"},{"bufferView":0,"byteOffset":89760,"componentType":5125,"count":7680,"max":[1283],"min":[0],"type":"SCALAR"},{"bufferView":1,"byteOffset":133776,"componentType":5126,"count":1284,"max":[1.2893375158309937,0.5425866842269897,2.5604331493377686],"min":[0.5646047592163086,0.23958666622638702,2.0909597873687744],"type":"VEC3"},{"bufferView":1,"byteOffset":149184,"componentType":5126,"count":1284,"max":[1,1,1],"min":[-1,-1,-1],"type":"VEC3"},{"bufferView":0,"byteOffset":120480,"componentType":5125,"count":7680,"max":[1283],"min":[0],"type":"SCALAR"},{"bufferView":1,"byteOffset":164592,"componentType":5126,"count":642,"max":[4.380000114440918,0.5429999828338623,4.122099876403809],"min":[4.076999664306641,0.24000000953674316,3.8190999031066895],"type":"VEC3"},{"bufferView":1,"byteOffset":172296,"componentType":5126,"count":642,"max":[1,1,1],"min":[-1,-1,-1],"type":"VEC3"},{"bufferView":0,"byteOffset":151200,"componentType":5125,"count":7680,"max":[641],"min":[0],"type":"SCALAR"},{"bufferView":1,"byteOffset":180000,"componentType":5126,"count":1284,"max":[4.380000114440918,0.5429999828338623,4.122099876403809],"min":[0.7764999866485596,0.23970000445842743,2.160900115966797],"type":"VEC3"},{"bufferView":1,"byteOffset":195408,"componentType":5126,"count":1284,"max":[1,1,1],"min":[-1,-1,-1],"type":"VEC3"},{"bufferView":0,"byteOffset":181920,"componentType":5125,"count":7680,"max":[1283],"min":[0],"type":"SCALAR"},{"bufferView":1,"byteOffset":210816,"componentType":5126,"count":642,"max":[1.3650999069213867,0.5422999858856201,4.807700157165527],"min":[1.0620999336242676,0.23930001258850098,4.504700183868408],"type":"VEC3"},{"bufferView":1,"byteOffset":218520,"componentType":5126,"count":642,"max":[1,1,1],"min":[-1,-1,-1],"type":"VEC3"},{"bufferView":0,"byteOffset":212640,"componentType":5125,"count":7680,"max":[641],"min":[0],"type":"SCALAR"},{"bufferView":1,"byteOffset":226224,"componentType":5126,"count":1284,"max":[5.292099952697754,0.7480000257492065,4.327099800109863],"min":[3.871999979019165,0.03440001606941223,1.5547000169754028],"type":"VEC3"},{"bufferView":1,"byteOffset":241632,"componentType":5126,"count":1284,"max":[1,1,1],"min":[-1,-1,-1],"type":"VEC3"},{"bufferView":0,"byteOffset":243360,"componentType":5125,"count":7680,"max":[1283],"min":[0],"type":"SCALAR"},{"bufferView":1,"byteOffset":257040,"componentType":5126,"count":1284,"max":[3.062999963760376,0.7476999759674072,2.6689000129699707],"min":[0.5715000629425049,0.034600019454956055,0.48060011863708496],"type":"VEC3"},{"bufferView":1,"byteOffset":272448,"componentType":5126,"count":1284,"max":[1,1,1],"min":[-1,-1,-1],"type":"VEC3"},{"bufferView":0,"byteOffset":274080,"componentType":5125,"count":7680,"max":[1283],"min":[0],"type":"SCALAR"},{"bufferView":1,"byteOffset":287856,"componentType":5126,"count":642,"max":[1.570099949836731,0.7473000288009644,5.012700080871582],"min":[0.8571000099182129,0.034299999475479126,4.299699783325195],"type":"VEC3"},{"bufferView":1,"byteOffset":295560,"componentType":5126,"count":642,"max":[1,1,1],"min":[-1,-1,-1],"type":"VEC3"},{"bufferView":0,"byteOffset":304800,"componentType":5125,"count":3840,"max":[641],"min":[0],"type":"SCALAR"},{"bufferView":1,"byteOffset":303264,"componentType":5126,"count":1866,"max":[5.870345592498779,0.5425866842269897,4.069981575012207],"min":[0.8208217620849609,0.2299884408712387,0.5737879276275635],"type":"VEC3"},{"bufferView":1,"byteOffset":325656,"componentType":5126,"count":1866,"max":[1,1,1],"min":[-1,-1,-1],"type":"VEC3"},{"bufferView":0,"byteOffset":320160,"componentType":5125,"count":7512,"max":[1865],"min":[0],"type":"SCALAR"},{"bufferView":1,"byteOffset":348048,"componentType":5126,"count":1284,"max":[3.7427000999450684,0.5433000326156616,3.311500072479248],"min":[2.961400032043457,0.23990000784397125,1.6877000331878662],"type":"VEC3"},{"bufferView":1,"byteOffset":363456,"componentType":5126,"count":1284,"max":[1,1,1],"min":[-1,-1,-1],"type":"VEC3"},{"bufferView":0,"byteOffset":350208,"componentType":5125,"count":7680,"max":[1283],"min":[0],"type":"SCALAR"},{"bufferView":1,"byteOffset":378864,"componentType":5126,"count":1284,"max":[5.661189079284668,0.5314884185791016,3.3816332817077637],"min":[4.925495624542236,0.22848844528198242,2.9565916061401367],"type":"VEC3"},{"bufferView":1,"byteOffset":394272,"componentType":5126,"count":1284,"max":[1,1,1],"min":[-1,-1,-1],"type":"VEC3"},{"bufferView":0,"byteOffset":380928,"componentType":5125,"count":7680,"max":[1283],"min":[0],"type":"SCALAR"},{"bufferView":1,"byteOffset":409680,"componentType":5126,"count":1284,"max":[5.462200164794922,0.5426999926567078,3.3115999698638916],"min":[1.2638999223709106,0.2395000010728836,0.9336000680923462],"type":"VEC3"},{"bufferView":1,"byteOffset":425088,"componentType":5126,"count":1284,"max":[1,1,1],"min":[-1,-1,-1],"type":"VEC3"},{"bufferView":0,"byteOffset":411648,"componentType":5125,"count":7680,"max":[1283],"min":[0],"type":"SCALAR"},{"bufferView":1,"byteOffset":440496,"componentType":5126,"count":1284,"max":[3.564474582672119,0.5426999926567078,2.14979887008667],"min":[1.2638999223709106,0.23958666622638702,0.9336000680923462],"type":"VEC3"},{"bufferView":1,"byteOffset":455904,"componentType":5126,"count":1284,"max":[1,1,1],"min":[-1,-1,-1],"type":"VEC3"},{"bufferView":0,"byteOffset":442368,"componentType":5125,"count":7680,"max":[1283],"min":[0],"type":"SCALAR"},{"bufferView":1,"byteOffset":471312,"componentType":5126,"count":1284,"max":[1.7776596546173096,0.5425866842269897,1.3285298347473145],"min":[1.0529268980026245,0.23958666622638702,0.8590563535690308],"type":"VEC3"},{"bufferView":1,"byteOffset":486720,"componentType":5126,"count":1284,"max":[1,1,1],"min":[-1,-1,-1],"type":"VEC3"},{"bufferView":0,"byteOffset":473088,"componentType":5125,"count":7680,"max":[1283],"min":[0],"type":"SCALAR"},{"bufferView":1,"byteOffset":502128,"componentType":5126,"count":1284,"max":[5.462200164794922,0.7821999788284302,3.3115999698638916],"min":[1.024399995803833,0.00020000338554382324,0.694100022315979],"type":"VEC3"},{"bufferView":1,"byteOffset":517536,"componentType":5126,"count":1284,"max":[1,1,1],"min":[-1,-1,-1],"type":"VEC3"},{"bufferView":0,"byteOffset":503808,"componentType":5125,"count":7680,"max":[1283],"min":[0],"type":"SCALAR"},{"bufferView":1,"byteOffset":532944,"componentType":5126,"count":1284,"max":[3.7427000999450684,0.5433000326156616,3.311500072479248],"min":[2.961400032043457,0.23990000784397125,1.6877000331878662],"type":"VEC3"},{"bufferView":1,"byteOffset":548352,"componentType":5126,"count":1284,"max":[1,1,1],"min":[-1,-1,-1],"type":"VEC3"},{"bufferView":0,"byteOffset":534528,"componentType":5125,"count":7680,"max":[1283],"min":[0],"type":"SCALAR"},{"bufferView":1,"byteOffset":563760,"componentType":5126,"count":1284,"max":[3.2204294204711914,0.5425866842269897,3.2929162979125977],"min":[1.5412490367889404,0.23958666622638702,2.779049873352051],"type":"VEC3"},{"bufferView":1,"byteOffset":579168,"componentType":5126,"count":1284,"max":[1,1,1],"min":[-1,-1,-1],"type":"VEC3"},{"bufferView":0,"byteOffset":565248,"componentType":5125,"count":7680,"max":[1283],"min":[0],"type":"SCALAR"},{"bufferView":1,"byteOffset":594576,"componentType":5126,"count":1284,"max":[3.2870187759399414,0.5425866842269897,3.747943878173828],"min":[1.6078383922576904,0.23958666622638702,3.2340774536132812],"type":"VEC3"},{"bufferView":1,"byteOffset":609984,"componentType":5126,"count":1284,"max":[1,1,1],"min":[-1,-1,-1],"type":"VEC3"},{"bufferView":0,"byteOffset":595968,"componentType":5125,"count":7680,"max":[1283],"min":[0],"type":"SCALAR"},{"bufferView":1,"byteOffset":625392,"componentType":5126,"count":642,"max":[1.8845999240875244,0.542900025844574,3.523200035095215],"min":[1.5815999507904053,0.23990000784397125,3.2202000617980957],"type":"VEC3"},{"bufferView":1,"byteOffset":633096,"componentType":5126,"count":642,"max":[1,1,1],"min":[-1,-1,-1],"type":"VEC3"},{"bufferView":0,"byteOffset":626688,"componentType":5125,"count":7680,"max":[641],"min":[0],"type":"SCALAR"},{"bufferView":1,"byteOffset":640800,"componentType":5126,"count":1284,"max":[3.5039000511169434,0.782800018787384,3.762700080871582],"min":[1.342099905014038,0.0004000067710876465,2.7690000534057617],"type":"VEC3"},{"bufferView":1,"byteOffset":656208,"componentType":5126,"count":1284,"max":[1,1,1],"min":[-1,-1,-1],"type":"VEC3"},{"bufferView":0,"byteOffset":657408,"componentType":5125,"count":7680,"max":[1283],"min":[0],"type":"SCALAR"},{"bufferView":1,"byteOffset":671616,"componentType":5126,"count":1284,"max":[5.701700210571289,0.7824000120162964,3.551100015640259],"min":[3.200200080871582,0,1.448199987411499],"type":"VEC3"},{"bufferView":1,"byteOffset":687024,"componentType":5126,"count":1284,"max":[1,1,1],"min":[-1,-1,-1],"type":"VEC3"},{"bufferView":0,"byteOffset":688128,"componentType":5125,"count":7680,"max":[1283],"min":[0],"type":"SCALAR"},{"bufferView":1,"byteOffset":702432,"componentType":5126,"count":1644,"max":[6.5894999504089355,0.6439999938011169,5.5127644538879395],"min":[0.23224663734436035,0.13740000128746033,0],"type":"VEC3"},{"bufferView":1,"byteOffset":722160,"componentType":5126,"count":1644,"max":[1,1,1],"min":[-1,-1,-1],"type":"VEC3"},{"bufferView":0,"byteOffset":718848,"componentType":5125,"count":8760,"max":[1643],"min":[0],"type":"SCALAR"},{"bufferView":1,"byteOffset":741888,"componentType":5126,"count":1284,"max":[4.488500118255615,0.6444000005722046,5.673799991607666],"min":[1.5575999021530151,0.13760000467300415,4.687600135803223],"type":"VEC3"},{"bufferView":1,"byteOffset":757296,"componentType":5126,"count":1284,"max":[1,1,1],"min":[-1,-1,-1],"type":"VEC3"},{"bufferView":0,"byteOffset":753888,"componentType":5125,"count":7680,"max":[1283],"min":[0],"type":"SCALAR"},{"bufferView":1,"byteOffset":772704,"componentType":5126,"count":1284,"max":[0.8783998489379883,0.6435999870300293,5.043900012969971],"min":[0,0.13760000467300415,0.10150003433227539],"type":"VEC3"},{"bufferView":1,"byteOffset":788112,"componentType":5126,"count":1284,"max":[1,1,1],"min":[-1,-1,-1],"type":"VEC3"},{"bufferView":0,"byteOffset":784608,"componentType":5125,"count":7680,"max":[1283],"min":[0],"type":"SCALAR"},{"bufferView":1,"byteOffset":803520,"componentType":5126,"count":1284,"max":[1.9621000289916992,0.5421000123023987,5.572299957275391],"min":[0.10150003433227539,0.23910000920295715,4.639400005340576],"type":"VEC3"},{"bufferView":1,"byteOffset":818928,"componentType":5126,"count":1284,"max":[1,1,1],"min":[-1,-1,-1],"type":"VEC3"},{"bufferView":0,"byteOffset":815328,"componentType":5125,"count":7680,"max":[1283],"min":[0],"type":"SCALAR"},{"bufferView":1,"byteOffset":834336,"componentType":5126,"count":1284,"max":[6.48799991607666,0.542900025844574,5.092100143432617],"min":[4.084000110626221,0.23890000581741333,3.346400022506714],"type":"VEC3"},{"bufferView":1,"byteOffset":849744,"componentType":5126,"count":1284,"max":[1,1,1],"min":[-1,-1,-1],"type":"VEC3"},{"bufferView":0,"byteOffset":846048,"componentType":5125,"count":7680,"max":[1283],"min":[0],"type":"SCALAR"}],"asset":{"extras":{"author":"Edumol (https://sketchfab.com/edumol)","license":"CC-BY-4.0 (http://creativecommons.org/licenses/by/4.0/)","source":"https://sketchfab.com/models/507fb58dd8ce466287e16a3c5d80d318","title":"Adenine"},"generator":"Sketchfab-3.18.6","version":"2.0"},"bufferViews":[{"buffer":0,"byteLength":876768,"byteOffset":0,"name":"floatBufferViews","target":34963},{"buffer":0,"byteLength":865152,"byteOffset":876768,"byteStride":12,"name":"floatBufferViews","target":34962}],"buffers":[{"byteLength":1741920,"uri":"data:application/octet-stream;base64,"}],"materials":[{"doubleSided":true,"emissiveFactor":[0,0,0],"name":"k3050f8","pbrMetallicRoughness":{"baseColorFactor":[0.191,0.316,0.973,1],"metallicFactor":0,"roughnessFactor":0.6},"alphaMode":"OPAQUE"},{"doubleSided":true,"emissiveFactor":[0,0,0],"name":"k909090","pbrMetallicRoughness":{"baseColorFactor":[0.1255469462,0.1186513544,0.1186513544,1],"metallicFactor":0,"roughnessFactor":0.6},"alphaMode":"OPAQUE"},{"doubleSided":true,"emissiveFactor":[0,0,0],"name":"kffffff","pbrMetallicRoughness":{"baseColorFactor":[1,1,1,1],"metallicFactor":0,"roughnessFactor":0.6},"alphaMode":"OPAQUE"}],"meshes":[{"primitives":[{"attributes":{"NORMAL":1,"POSITION":0},"indices":2,"material":0,"mode":4}]},{"primitives":[{"attributes":{"NORMAL":4,"POSITION":3},"indices":5,"material":0,"mode":4}]},{"primitives":[{"attributes":{"NORMAL":7,"POSITION":6},"indices":8,"material":0,"mode":4}]},{"primitives":[{"attributes":{"NORMAL":10,"POSITION":9},"indices":11,"material":0,"mode":4}]},{"primitives":[{"attributes":{"NORMAL":13,"POSITION":12},"indices":14,"material":0,"mode":4}]},{"primitives":[{"attributes":{"NORMAL":16,"POSITION":15},"indices":17,"material":0,"mode":4}]},{"primitives":[{"attributes":{"NORMAL":19,"POSITION":18},"indices":20,"material":0,"mode":4}]},{"primitives":[{"attributes":{"NORMAL":22,"POSITION":21},"indices":23,"material":0,"mode":4}]},{"primitives":[{"attributes":{"NORMAL":25,"POSITION":24},"indices":26,"material":0,"mode":4}]},{"primitives":[{"attributes":{"NORMAL":28,"POSITION":27},"indices":29,"material":0,"mode":4}]},{"primitives":[{"attributes":{"NORMAL":31,"POSITION":30},"indices":32,"material":0,"mode":4}]},{"primitives":[{"attributes":{"NORMAL":34,"POSITION":33},"indices":35,"material":1,"mode":4}]},{"primitives":[{"attributes":{"NORMAL":37,"POSITION":36},"indices":38,"material":1,"mode":4}]},{"primitives":[{"attributes":{"NORMAL":40,"POSITION":39},"indices":41,"material":1,"mode":4}]},{"primitives":[{"attributes":{"NORMAL":43,"POSITION":42},"indices":44,"material":1,"mode":4}]},{"primitives":[{"attributes":{"NORMAL":46,"POSITION":45},"indices":47,"material":1,"mode":4}]},{"primitives":[{"attributes":{"NORMAL":49,"POSITION":48},"indices":50,"material":1,"mode":4}]},{"primitives":[{"attributes":{"NORMAL":52,"POSITION":51},"indices":53,"material":1,"mode":4}]},{"primitives":[{"attributes":{"NORMAL":55,"POSITION":54},"indices":56,"material":1,"mode":4}]},{"primitives":[{"attributes":{"NORMAL":58,"POSITION":57},"indices":59,"material":1,"mode":4}]},{"primitives":[{"attributes":{"NORMAL":61,"POSITION":60},"indices":62,"material":1,"mode":4}]},{"primitives":[{"attributes":{"NORMAL":64,"POSITION":63},"indices":65,"material":1,"mode":4}]},{"primitives":[{"attributes":{"NORMAL":67,"POSITION":66},"indices":68,"material":1,"mode":4}]},{"primitives":[{"attributes":{"NORMAL":70,"POSITION":69},"indices":71,"material":1,"mode":4}]},{"primitives":[{"attributes":{"NORMAL":73,"POSITION":72},"indices":74,"material":2,"mode":4}]},{"primitives":[{"attributes":{"NORMAL":76,"POSITION":75},"indices":77,"material":2,"mode":4}]},{"primitives":[{"attributes":{"NORMAL":79,"POSITION":78},"indices":80,"material":2,"mode":4}]},{"primitives":[{"attributes":{"NORMAL":82,"POSITION":81},"indices":83,"material":2,"mode":4}]},{"primitives":[{"attributes":{"NORMAL":85,"POSITION":84},"indices":86,"material":2,"mode":4}]}],"nodes":[{"children":[1],"name":"RootNode (gltf orientation matrix)","rotation":[-0.7071067811865475,0,0,0.7071067811865476],"translation":[0,0,0],"scale":[1,1,1]},{"children":[2],"name":"RootNode (model correction matrix)"},{"children":[3,4,5,6,7,8,9,10,11,12,13,14,15,16,17,18,19,20,21,22,23,24,25,26,27,28,29,30,31],"matrix":[1,0,0,0,0,1,0,0,0,0,1,0,-2.899899959564209,-0.3912000060081482,-2.6812000274658203,1],"name":"adenine.obj.cleaner.gles"},{"mesh":0,"name":""},{"mesh":1,"name":""},{"mesh":2,"name":""},{"mesh":3,"name":""},{"mesh":4,"name":""},{"mesh":5,"name":""},{"mesh":6,"name":""},{"mesh":7,"name":""},{"mesh":8,"name":""},{"mesh":9,"name":""},{"mesh":10,"name":""},{"mesh":11,"name":""},{"mesh":12,"name":""},{"mesh":13,"name":""},{"mesh":14,"name":""},{"mesh":15,"name":""},{"mesh":16,"name":""},{"mesh":17,"name":""},{"mesh":18,"name":""},{"mesh":19,"name":""},{"mesh":20,"name":""},{"mesh":21,"name":""},{"mesh":22,"name":""},{"mesh":23,"name":""},{"mesh":24,"name":""},{"mesh":25,"name":""},{"mesh":26,"name":""},{"mesh":27,"name":""},{"mesh":28,"name":""}],"scene":0,"scenes":[{"name":"OSG_Scene","nodes":[0]}]}
